<svg xmlns="http://www.w3.org/2000/svg" viewBox="0 0 320 180" role="img" aria-label="Hallway walk sample thumbnail">
  <rect width="320" height="180" rx="14" fill="#eef3f2"/>
  <path d="M0 0h320v42H0z" fill="#dbe4e1"/>
  <path d="M36 180 126 42h68l90 138Z" fill="#d9d2c7"/>
  <path d="M126 42h68v138h-68z" fill="#eee8df"/>
  <path d="M76 50h42v105H76zM202 50h42v105h-42z" fill="#c6d0cb"/>
  <path d="M125 42 64 180M195 42l62 138" stroke="#9db0aa" stroke-width="4"/>
  <circle cx="160" cy="77" r="13" fill="#d0ab8d"/>
  <path d="M148 94h24l9 58h-42z" fill="#254f4b"/>
  <path d="m147 151-10 29M173 151l10 29M147 106l-22 22M173 106l25 17" stroke="#25312f" stroke-width="8" stroke-linecap="round"/>
</svg>
