<svg xmlns="http://www.w3.org/2000/svg" viewBox="0 0 320 180" role="img" aria-label="Imbalance event sample thumbnail">
  <rect width="320" height="180" rx="14" fill="#eef3f2"/>
  <path d="M0 0h320v42H0z" fill="#dbe4e1"/>
  <path d="M36 180 126 42h68l90 138Z" fill="#d9d2c7"/>
  <path d="M126 42h68v138h-68z" fill="#eee8df"/>
  <path d="M76 50h42v105H76zM202 50h42v105h-42z" fill="#c6d0cb"/>
  <g transform="rotate(-9 160 118)">
    <circle cx="160" cy="77" r="13" fill="#d0ab8d"/>
    <path d="M148 94h24l9 58h-42z" fill="#254f4b"/>
    <path d="m147 151-12 29M173 151l12 29M147 106l-26 21M173 106l28 20" stroke="#25312f" stroke-width="8" stroke-linecap="round"/>
  </g>
  <path d="M207 84c16 8 24 23 22 42" stroke="#b54708" stroke-width="5" stroke-linecap="round" stroke-dasharray="7 9"/>
</svg>
